<svg width="25" height="26" viewBox="0 0 25 26" fill="none" xmlns="http://www.w3.org/2000/svg">
<path fill-rule="evenodd" clip-rule="evenodd" d="M14.25 25.5C15.3125 25.5 16.1198 25.1823 16.6719 24.5469C17.224 23.9115 17.5 23.1875 17.5 22.375C17.5 21.8333 17.3802 21.3073 17.1406 20.7969C16.901 20.2865 16.5312 19.8646 16.0312 19.5312C15.5729 19.2396 15.1927 18.849 14.8906 18.3594C14.5885 17.8698 14.3646 17.1979 14.2188 16.3438C14.2396 16.3438 14.25 16.3385 14.25 16.3281C14.25 16.3177 14.2708 16.3021 14.3125 16.2812L17.9375 17.5625C18.2917 17.6875 18.6354 17.7917 18.9688 17.875C19.3021 17.9583 19.6458 18 20 18C21.3125 18 22.474 17.4271 23.4844 16.2812C24.4948 15.1354 25 13.4583 25 11.25C25 10.1875 24.6823 9.38021 24.0469 8.82812C23.4115 8.27604 22.6979 8 21.9062 8C21.3646 8 20.8333 8.11979 20.3125 8.35938C19.7917 8.59896 19.3646 8.96875 19.0312 9.46875C18.7396 9.92708 18.3281 10.3177 17.7969 10.6406C17.2656 10.9635 16.6146 11.1771 15.8438 11.2812C15.8229 11.2604 15.8073 11.2396 15.7969 11.2188C15.7865 11.1979 15.7812 11.1771 15.7812 11.1562L17.0625 7.5625C17.1875 7.20833 17.2917 6.86458 17.375 6.53125C17.4583 6.19792 17.5 5.86458 17.5 5.53125C17.5 4.19792 16.9271 3.02604 15.7812 2.01563C14.6354 1.00521 12.9583 0.5 10.75 0.5C9.6875 0.5 8.88021 0.817708 8.32812 1.45313C7.77604 2.08854 7.5 2.80208 7.5 3.59375C7.5 4.13542 7.61979 4.66667 7.85938 5.1875C8.09896 5.70833 8.46875 6.13542 8.96875 6.46875C9.51042 6.82292 9.93229 7.29167 10.2344 7.875C10.5365 8.45833 10.7083 9.0625 10.75 9.6875C10.7292 9.70833 10.7135 9.71354 10.7031 9.70312C10.6927 9.69271 10.6771 9.70833 10.6562 9.75L7.0625 8.40625C6.70833 8.28125 6.36979 8.18229 6.04688 8.10937C5.72396 8.03646 5.38542 8 5.03125 8C3.34375 8 2.08333 8.69792 1.25 10.0938C0.416667 11.4896 0 13.0417 0 14.75C0 15.8125 0.333333 16.6198 1 17.1719C1.66667 17.724 2.40625 18 3.21875 18C3.73958 18 4.24479 17.8802 4.73438 17.6406C5.22396 17.401 5.63542 17.0312 5.96875 16.5312C6.26042 16.0729 6.65104 15.6927 7.14062 15.3906C7.63021 15.0885 8.30208 14.8542 9.15625 14.6875L9.20312 14.7812C9.21354 14.8021 9.22917 14.8229 9.25 14.8438L7.9375 18.4375C7.8125 18.7708 7.70833 19.0885 7.625 19.3906C7.54167 19.6927 7.5 20.0104 7.5 20.3438C7.47917 21.6979 8.04167 22.8958 9.1875 23.9375C10.3333 24.9792 12.0208 25.5 14.25 25.5ZM11.1719 14.3281C11.5365 14.6927 11.9792 14.875 12.5 14.875C13.0208 14.875 13.4635 14.6927 13.8281 14.3281C14.1927 13.9635 14.375 13.5208 14.375 13C14.375 12.4792 14.1927 12.0365 13.8281 11.6719C13.4635 11.3073 13.0208 11.125 12.5 11.125C11.9792 11.125 11.5365 11.3073 11.1719 11.6719C10.8073 12.0365 10.625 12.4792 10.625 13C10.625 13.5208 10.8073 13.9635 11.1719 14.3281Z" fill="#D9D9D9"/>
</svg>
